<svg id="visual" viewBox="0 0 960 450" width="960" height="450" xmlns="http://www.w3.org/2000/svg" xmlns:xlink="http://www.w3.org/1999/xlink" version="1.1"><rect x="0" y="0" width="960" height="450" fill="#001220"></rect><defs><linearGradient id="grad1_0" x1="53.1%" y1="100%" x2="100%" y2="0%"><stop offset="7.333333333333333%" stop-color="#3cc6fa" stop-opacity="1"></stop><stop offset="92.66666666666667%" stop-color="#3cc6fa" stop-opacity="1"></stop></linearGradient></defs><defs><linearGradient id="grad1_1" x1="53.1%" y1="100%" x2="100%" y2="0%"><stop offset="7.333333333333333%" stop-color="#3cc6fa" stop-opacity="1"></stop><stop offset="92.66666666666667%" stop-color="#256486" stop-opacity="1"></stop></linearGradient></defs><defs><linearGradient id="grad1_2" x1="53.1%" y1="100%" x2="100%" y2="0%"><stop offset="7.333333333333333%" stop-color="#001220" stop-opacity="1"></stop><stop offset="92.66666666666667%" stop-color="#256486" stop-opacity="1"></stop></linearGradient></defs><defs><linearGradient id="grad2_0" x1="0%" y1="100%" x2="46.9%" y2="0%"><stop offset="7.333333333333333%" stop-color="#3cc6fa" stop-opacity="1"></stop><stop offset="92.66666666666667%" stop-color="#3cc6fa" stop-opacity="1"></stop></linearGradient></defs><defs><linearGradient id="grad2_1" x1="0%" y1="100%" x2="46.9%" y2="0%"><stop offset="7.333333333333333%" stop-color="#256486" stop-opacity="1"></stop><stop offset="92.66666666666667%" stop-color="#3cc6fa" stop-opacity="1"></stop></linearGradient></defs><defs><linearGradient id="grad2_2" x1="0%" y1="100%" x2="46.9%" y2="0%"><stop offset="7.333333333333333%" stop-color="#256486" stop-opacity="1"></stop><stop offset="92.66666666666667%" stop-color="#001220" stop-opacity="1"></stop></linearGradient></defs><g transform="translate(960, 450)"><path d="M-427.5 0C-422.7 -85.9 -417.9 -171.7 -370.2 -213.8C-322.5 -255.8 -231.9 -254 -163 -282.3C-94.1 -310.6 -47.1 -369.1 0 -427.5L0 0Z" fill="#143951"></path><path d="M-285 0C-281.8 -57.2 -278.6 -114.5 -246.8 -142.5C-215 -170.5 -154.6 -169.3 -108.7 -188.2C-62.8 -207.1 -31.4 -246 0 -285L0 0Z" fill="#3293bf"></path><path d="M-142.5 0C-140.9 -28.6 -139.3 -57.2 -123.4 -71.3C-107.5 -85.3 -77.3 -84.7 -54.3 -94.1C-31.4 -103.5 -15.7 -123 0 -142.5L0 0Z" fill="#3cc6fa"></path></g><g transform="translate(0, 0)"><path d="M427.5 0C383.9 55.6 340.2 111.2 310 179C279.9 246.8 263.2 326.8 213.8 370.2C164.3 413.7 82.2 420.6 0 427.5L0 0Z" fill="#143951"></path><path d="M285 0C255.9 37.1 226.8 74.1 206.7 119.3C186.6 164.5 175.5 217.9 142.5 246.8C109.5 275.8 54.8 280.4 0 285L0 0Z" fill="#3293bf"></path><path d="M142.5 0C128 18.5 113.4 37.1 103.3 59.7C93.3 82.3 87.7 108.9 71.3 123.4C54.8 137.9 27.4 140.2 0 142.5L0 0Z" fill="#3cc6fa"></path></g></svg>