<svg id="visual" viewBox="0 0 960 600" width="960" height="600" xmlns="http://www.w3.org/2000/svg" xmlns:xlink="http://www.w3.org/1999/xlink" version="1.1"><rect x="0" y="0" width="960" height="600" fill="#001220"></rect><g fill="none" stroke="#3a98c1" stroke-width="2"><circle r="43" cx="225" cy="465"></circle><circle r="7" cx="220" cy="28"></circle><circle r="23" cx="752" cy="471"></circle><circle r="32" cx="952" cy="451"></circle><circle r="12" cx="588" cy="208"></circle><circle r="40" cx="135" cy="418"></circle><circle r="11" cx="516" cy="101"></circle><circle r="18" cx="904" cy="334"></circle><circle r="28" cx="671" cy="323"></circle><circle r="18" cx="247" cy="310"></circle><circle r="34" cx="759" cy="134"></circle><circle r="35" cx="524" cy="307"></circle><circle r="27" cx="552" cy="496"></circle><circle r="32" cx="261" cy="564"></circle><circle r="31" cx="905" cy="152"></circle><circle r="24" cx="69" cy="42"></circle><circle r="31" cx="198" cy="174"></circle><circle r="38" cx="888" cy="591"></circle><circle r="10" cx="394" cy="531"></circle><circle r="11" cx="656" cy="1"></circle><circle r="9" cx="298" cy="146"></circle><circle r="21" cx="662" cy="146"></circle><circle r="29" cx="5" cy="195"></circle><circle r="34" cx="140" cy="304"></circle><circle r="16" cx="421" cy="285"></circle><circle r="12" cx="47" cy="535"></circle><circle r="22" cx="390" cy="146"></circle><circle r="34" cx="870" cy="20"></circle><circle r="32" cx="361" cy="374"></circle><circle r="12" cx="9" cy="418"></circle><circle r="7" cx="843" cy="217"></circle><circle r="14" cx="786" cy="568"></circle><circle r="32" cx="336" cy="10"></circle><circle r="26" cx="634" cy="547"></circle><circle r="40" cx="847" cy="454"></circle><circle r="10" cx="635" cy="447"></circle><circle r="35" cx="481" cy="593"></circle><circle r="30" cx="936" cy="238"></circle><circle r="39" cx="436" cy="19"></circle><circle r="30" cx="44" cy="318"></circle><circle r="25" cx="158" cy="570"></circle><circle r="6" cx="463" cy="390"></circle><circle r="33" cx="763" cy="360"></circle><circle r="38" cx="86" cy="150"></circle><circle r="7" cx="766" cy="43"></circle><circle r="13" cx="308" cy="243"></circle><circle r="41" cx="761" cy="267"></circle><circle r="30" cx="480" cy="202"></circle><circle r="13" cx="542" cy="7"></circle><circle r="16" cx="955" cy="67"></circle><circle r="16" cx="590" cy="368"></circle><circle r="9" cx="156" cy="93"></circle><circle r="18" cx="326" cy="456"></circle></g></svg>