<svg id="visual" viewBox="0 0 950 600" width="950" height="600" xmlns="http://www.w3.org/2000/svg" xmlns:xlink="http://www.w3.org/1999/xlink" version="1.1"><path d="M0 155L22.7 165.2C45.3 175.3 90.7 195.7 135.8 216.2C181 236.7 226 257.3 271.2 262.5C316.3 267.7 361.7 257.3 407 242.7C452.3 228 497.7 209 543 213.7C588.3 218.3 633.7 246.7 678.8 241.3C724 236 769 197 814.2 178.3C859.3 159.7 904.7 161.3 927.3 162.2L950 163L950 601L927.3 601C904.7 601 859.3 601 814.2 601C769 601 724 601 678.8 601C633.7 601 588.3 601 543 601C497.7 601 452.3 601 407 601C361.7 601 316.3 601 271.2 601C226 601 181 601 135.8 601C90.7 601 45.3 601 22.7 601L0 601Z" fill="#00d3a7"></path><path d="M0 219L22.7 230.5C45.3 242 90.7 265 135.8 269.2C181 273.3 226 258.7 271.2 250.2C316.3 241.7 361.7 239.3 407 258.8C452.3 278.3 497.7 319.7 543 332.2C588.3 344.7 633.7 328.3 678.8 326C724 323.7 769 335.3 814.2 325.7C859.3 316 904.7 285 927.3 269.5L950 254L950 601L927.3 601C904.7 601 859.3 601 814.2 601C769 601 724 601 678.8 601C633.7 601 588.3 601 543 601C497.7 601 452.3 601 407 601C361.7 601 316.3 601 271.2 601C226 601 181 601 135.8 601C90.7 601 45.3 601 22.7 601L0 601Z" fill="#00cd92"></path><path d="M0 289L22.7 297.2C45.3 305.3 90.7 321.7 135.8 342.2C181 362.7 226 387.3 271.2 388.8C316.3 390.3 361.7 368.7 407 359.3C452.3 350 497.7 353 543 361.2C588.3 369.3 633.7 382.7 678.8 385.3C724 388 769 380 814.2 367.5C859.3 355 904.7 338 927.3 329.5L950 321L950 601L927.3 601C904.7 601 859.3 601 814.2 601C769 601 724 601 678.8 601C633.7 601 588.3 601 543 601C497.7 601 452.3 601 407 601C361.7 601 316.3 601 271.2 601C226 601 181 601 135.8 601C90.7 601 45.3 601 22.7 601L0 601Z" fill="#00c77b"></path><path d="M0 350L22.7 367C45.3 384 90.7 418 135.8 421.7C181 425.3 226 398.7 271.2 397.8C316.3 397 361.7 422 407 430.7C452.3 439.3 497.7 431.7 543 421.5C588.3 411.3 633.7 398.7 678.8 395.8C724 393 769 400 814.2 396C859.3 392 904.7 377 927.3 369.5L950 362L950 601L927.3 601C904.7 601 859.3 601 814.2 601C769 601 724 601 678.8 601C633.7 601 588.3 601 543 601C497.7 601 452.3 601 407 601C361.7 601 316.3 601 271.2 601C226 601 181 601 135.8 601C90.7 601 45.3 601 22.7 601L0 601Z" fill="#00c162"></path><path d="M0 460L22.7 465.8C45.3 471.7 90.7 483.3 135.8 484.7C181 486 226 477 271.2 472.8C316.3 468.7 361.7 469.3 407 469.8C452.3 470.3 497.7 470.7 543 469.3C588.3 468 633.7 465 678.8 463.5C724 462 769 462 814.2 454.7C859.3 447.3 904.7 432.7 927.3 425.3L950 418L950 601L927.3 601C904.7 601 859.3 601 814.2 601C769 601 724 601 678.8 601C633.7 601 588.3 601 543 601C497.7 601 452.3 601 407 601C361.7 601 316.3 601 271.2 601C226 601 181 601 135.8 601C90.7 601 45.3 601 22.7 601L0 601Z" fill="#00ba46"></path><path d="M0 490L22.7 500.7C45.3 511.3 90.7 532.7 135.8 535.3C181 538 226 522 271.2 520.7C316.3 519.3 361.7 532.7 407 532.2C452.3 531.7 497.7 517.3 543 511.7C588.3 506 633.7 509 678.8 516.5C724 524 769 536 814.2 533.2C859.3 530.3 904.7 512.7 927.3 503.8L950 495L950 601L927.3 601C904.7 601 859.3 601 814.2 601C769 601 724 601 678.8 601C633.7 601 588.3 601 543 601C497.7 601 452.3 601 407 601C361.7 601 316.3 601 271.2 601C226 601 181 601 135.8 601C90.7 601 45.3 601 22.7 601L0 601Z" fill="#00b321"></path></svg>