<svg id="visual" viewBox="0 0 900 450" width="900" height="450" xmlns="http://www.w3.org/2000/svg" xmlns:xlink="http://www.w3.org/1999/xlink" version="1.1"><rect x="0" y="0" width="900" height="450" fill="#ffffff"></rect><path d="M0 127L11.5 121.8C23 116.7 46 106.3 69 106.8C92 107.3 115 118.7 138.2 124.3C161.3 130 184.7 130 207.8 125C231 120 254 110 277 108.3C300 106.7 323 113.3 346 122.5C369 131.7 392 143.3 415.2 139.8C438.3 136.3 461.7 117.7 484.8 117C508 116.3 531 133.7 554 133.2C577 132.7 600 114.3 623 108.2C646 102 669 108 692.2 114C715.3 120 738.7 126 761.8 122.8C785 119.7 808 107.3 831 99.8C854 92.3 877 89.7 888.5 88.3L900 87L900 451L888.5 451C877 451 854 451 831 451C808 451 785 451 761.8 451C738.7 451 715.3 451 692.2 451C669 451 646 451 623 451C600 451 577 451 554 451C531 451 508 451 484.8 451C461.7 451 438.3 451 415.2 451C392 451 369 451 346 451C323 451 300 451 277 451C254 451 231 451 207.8 451C184.7 451 161.3 451 138.2 451C115 451 92 451 69 451C46 451 23 451 11.5 451L0 451Z" fill="#24c7b3"></path><path d="M0 186L11.5 177.7C23 169.3 46 152.7 69 155C92 157.3 115 178.7 138.2 181.5C161.3 184.3 184.7 168.7 207.8 165.8C231 163 254 173 277 174.7C300 176.3 323 169.7 346 170.2C369 170.7 392 178.3 415.2 178C438.3 177.7 461.7 169.3 484.8 161C508 152.7 531 144.3 554 142.8C577 141.3 600 146.7 623 153.3C646 160 669 168 692.2 176C715.3 184 738.7 192 761.8 185.2C785 178.3 808 156.7 831 147.2C854 137.7 877 140.3 888.5 141.7L900 143L900 451L888.5 451C877 451 854 451 831 451C808 451 785 451 761.8 451C738.7 451 715.3 451 692.2 451C669 451 646 451 623 451C600 451 577 451 554 451C531 451 508 451 484.8 451C461.7 451 438.3 451 415.2 451C392 451 369 451 346 451C323 451 300 451 277 451C254 451 231 451 207.8 451C184.7 451 161.3 451 138.2 451C115 451 92 451 69 451C46 451 23 451 11.5 451L0 451Z" fill="#19d1ae"></path><path d="M0 208L11.5 208.2C23 208.3 46 208.7 69 209.3C92 210 115 211 138.2 214.3C161.3 217.7 184.7 223.3 207.8 226.7C231 230 254 231 277 227.8C300 224.7 323 217.3 346 210.7C369 204 392 198 415.2 197.7C438.3 197.3 461.7 202.7 484.8 205.3C508 208 531 208 554 208.8C577 209.7 600 211.3 623 211.5C646 211.7 669 210.3 692.2 212.5C715.3 214.7 738.7 220.3 761.8 224.2C785 228 808 230 831 226.7C854 223.3 877 214.7 888.5 210.3L900 206L900 451L888.5 451C877 451 854 451 831 451C808 451 785 451 761.8 451C738.7 451 715.3 451 692.2 451C669 451 646 451 623 451C600 451 577 451 554 451C531 451 508 451 484.8 451C461.7 451 438.3 451 415.2 451C392 451 369 451 346 451C323 451 300 451 277 451C254 451 231 451 207.8 451C184.7 451 161.3 451 138.2 451C115 451 92 451 69 451C46 451 23 451 11.5 451L0 451Z" fill="#23daa6"></path><path d="M0 238L11.5 238.2C23 238.3 46 238.7 69 238.5C92 238.3 115 237.7 138.2 237.5C161.3 237.3 184.7 237.7 207.8 243C231 248.3 254 258.7 277 262.5C300 266.3 323 263.7 346 261.2C369 258.7 392 256.3 415.2 257.2C438.3 258 461.7 262 484.8 259.5C508 257 531 248 554 243.2C577 238.3 600 237.7 623 241.8C646 246 669 255 692.2 259.8C715.3 264.7 738.7 265.3 761.8 261.5C785 257.7 808 249.3 831 245.7C854 242 877 243 888.5 243.5L900 244L900 451L888.5 451C877 451 854 451 831 451C808 451 785 451 761.8 451C738.7 451 715.3 451 692.2 451C669 451 646 451 623 451C600 451 577 451 554 451C531 451 508 451 484.8 451C461.7 451 438.3 451 415.2 451C392 451 369 451 346 451C323 451 300 451 277 451C254 451 231 451 207.8 451C184.7 451 161.3 451 138.2 451C115 451 92 451 69 451C46 451 23 451 11.5 451L0 451Z" fill="#39e39b"></path><path d="M0 296L11.5 298.8C23 301.7 46 307.3 69 309.2C92 311 115 309 138.2 309C161.3 309 184.7 311 207.8 311.3C231 311.7 254 310.3 277 307.3C300 304.3 323 299.7 346 300.3C369 301 392 307 415.2 306C438.3 305 461.7 297 484.8 298.2C508 299.3 531 309.7 554 314.3C577 319 600 318 623 313.3C646 308.7 669 300.3 692.2 301.2C715.3 302 738.7 312 761.8 313.2C785 314.3 808 306.7 831 304.5C854 302.3 877 305.7 888.5 307.3L900 309L900 451L888.5 451C877 451 854 451 831 451C808 451 785 451 761.8 451C738.7 451 715.3 451 692.2 451C669 451 646 451 623 451C600 451 577 451 554 451C531 451 508 451 484.8 451C461.7 451 438.3 451 415.2 451C392 451 369 451 346 451C323 451 300 451 277 451C254 451 231 451 207.8 451C184.7 451 161.3 451 138.2 451C115 451 92 451 69 451C46 451 23 451 11.5 451L0 451Z" fill="#52eb8d"></path><path d="M0 328L11.5 329.3C23 330.7 46 333.3 69 333.7C92 334 115 332 138.2 333.3C161.3 334.7 184.7 339.3 207.8 344.5C231 349.7 254 355.3 277 355.8C300 356.3 323 351.7 346 349C369 346.3 392 345.7 415.2 345.7C438.3 345.7 461.7 346.3 484.8 345.2C508 344 531 341 554 342C577 343 600 348 623 348.7C646 349.3 669 345.7 692.2 346.7C715.3 347.7 738.7 353.3 761.8 351C785 348.7 808 338.3 831 339C854 339.7 877 351.3 888.5 357.2L900 363L900 451L888.5 451C877 451 854 451 831 451C808 451 785 451 761.8 451C738.7 451 715.3 451 692.2 451C669 451 646 451 623 451C600 451 577 451 554 451C531 451 508 451 484.8 451C461.7 451 438.3 451 415.2 451C392 451 369 451 346 451C323 451 300 451 277 451C254 451 231 451 207.8 451C184.7 451 161.3 451 138.2 451C115 451 92 451 69 451C46 451 23 451 11.5 451L0 451Z" fill="#6df37c"></path><path d="M0 396L11.5 393.2C23 390.3 46 384.7 69 386.8C92 389 115 399 138.2 398.8C161.3 398.7 184.7 388.3 207.8 384.3C231 380.3 254 382.7 277 387.8C300 393 323 401 346 400.5C369 400 392 391 415.2 390.5C438.3 390 461.7 398 484.8 400.3C508 402.7 531 399.3 554 399.7C577 400 600 404 623 404.5C646 405 669 402 692.2 401C715.3 400 738.7 401 761.8 401.5C785 402 808 402 831 403C854 404 877 406 888.5 407L900 408L900 451L888.5 451C877 451 854 451 831 451C808 451 785 451 761.8 451C738.7 451 715.3 451 692.2 451C669 451 646 451 623 451C600 451 577 451 554 451C531 451 508 451 484.8 451C461.7 451 438.3 451 415.2 451C392 451 369 451 346 451C323 451 300 451 277 451C254 451 231 451 207.8 451C184.7 451 161.3 451 138.2 451C115 451 92 451 69 451C46 451 23 451 11.5 451L0 451Z" fill="#88fa69"></path></svg>